<?xml version="1.0" encoding="utf-8"?>
<!-- Generator: Adobe Illustrator 19.1.0, SVG Export Plug-In . SVG Version: 6.00 Build 0)  -->
<svg version="1.1" xmlns="http://www.w3.org/2000/svg" xmlns:xlink="http://www.w3.org/1999/xlink" x="0px" y="0px"
	 viewBox="0 0 278.7 362.5" style="enable-background:new 0 0 278.7 362.5;" xml:space="preserve">
<style type="text/css">
	.top{fill:#BBFFFE;}
  .left-top{fill:#5BF6FA;}
  .left-middle{fill:#53FFFE;}
  .left-bottom{fill:#49D9FD;}
  .right-top{fill:#3AD772;}
  .right-middle{fill:#4EFD9D;}
  .right-bottom{fill:#36C473;}

	.st1{fill:#fff;}
</style>
<g id="Layer_1_copy_2">
	<g>
		<g>
			<path class="left-bottom" d="M177,360.4c-5.1,2.8-11,2.8-17.6,0c-4-1.7-7.5-4.7-10.6-9.1c-3.1-4.4-3.3-9.6-0.8-15.6c1.7-4,4-7.3,7.1-10
				c3.1-2.6,6.1-5.3,9.2-7.9l106.9-79.8l7.5,7.3l-89.4,105.4C186.2,354.3,182.1,357.6,177,360.4z"/>
		</g>
		<g>
			<path class="left-middle" d="M177,284.5c-5.1,2.8-11,2.8-17.6,0c-4-1.7-7.5-4.7-10.6-9.1c-3.1-4.4-3.3-9.6-0.8-15.6c1.7-4,4-7.3,7.1-10
				c3.1-2.6,6.1-5.3,9.2-7.9L271.2,162l7.5,7.3l-89.4,105.4C186.2,278.4,182.1,281.7,177,284.5z"/>
		</g>
		<g>
			<path class="left-top" d="M177,208.6c-5.1,2.8-11,2.8-17.6,0c-4-1.7-7.5-4.7-10.6-9.1c-3.1-4.4-3.3-9.6-0.8-15.6c1.7-4,4-7.3,7.1-10
				c3.1-2.6,6.1-5.3,9.2-7.9l106.9-79.8l7.5,7.3l-89.4,105.4C186.2,202.6,182.1,205.8,177,208.6z"/>
		</g>
		<g>
			<path class="top" d="M154.4,122.4c-1.2,4.5-4.4,7.9-9.7,10.2c-3.2,1.4-6.9,1.8-11.1,1.1c-4.2-0.6-7.4-3.4-9.5-8.1
				c-1.4-3.2-2-6.4-1.9-9.6c0.1-3.2,0.3-6.5,0.4-9.7l12.3-106l8.4-0.4l12.2,109.9C155.9,113.8,155.5,118,154.4,122.4z"/>
		</g>
		<g>
			<path class="right-bottom" d="M89.4,350.6L0,245.2l7.5-7.3l106.9,79.8c3.1,2.6,6.1,5.3,9.2,7.9c3.1,2.6,5.4,6,7.1,10
				c2.5,6,2.2,11.2-0.8,15.6c-3,4.4-6.6,7.5-10.6,9.1c-6.7,2.8-12.5,2.8-17.6,0C96.6,357.6,92.5,354.3,89.4,350.6z"/>
		</g>
		<g>
			<path class="right-middle" d="M89.4,274.7L0,169.3l7.5-7.3l106.9,79.8c3.1,2.6,6.1,5.3,9.2,7.9c3.1,2.6,5.4,6,7.1,10
				c2.5,6,2.2,11.2-0.8,15.6c-3,4.4-6.6,7.5-10.6,9.1c-6.7,2.8-12.5,2.8-17.6,0C96.6,281.7,92.5,278.4,89.4,274.7z"/>
		</g>
		<g>
			<path class="right-top" d="M89.4,198.8L0,93.4l7.5-7.3L114.4,166c3.1,2.6,6.1,5.3,9.2,7.9c3.1,2.6,5.4,6,7.1,10
				c2.5,6,2.2,11.2-0.8,15.6c-3,4.4-6.6,7.5-10.6,9.1c-6.7,2.8-12.5,2.8-17.6,0C96.6,205.8,92.5,202.6,89.4,198.8z"/>
		</g>
	</g>
</g>
</svg>
